<svg width="206" height="48" viewBox="0 0 206 48" fill="none" xmlns="http://www.w3.org/2000/svg">
<path fill-rule="evenodd" clip-rule="evenodd" d="M31.1979 11.1399C31.7076 11.6236 31.9625 11.8655 32.3644 12.358C32.582 12.6246 33.1495 13.4543 33.3191 13.7537C33.6323 14.3068 33.6455 14.3389 33.6717 14.403C34.2575 15.8352 34.2307 17.0057 33.5422 18.4077C33.541 18.4101 33.5404 18.4114 33.2431 18.8782C33.0901 19.1184 32.549 19.8439 32.3624 20.059C31.9998 20.4771 31.7978 20.6636 31.394 21.0366L22.4298 29.3158C21.8964 29.8084 21.6297 30.0548 21.1177 30.4203C20.8325 30.6239 19.9943 31.1222 19.6792 31.2753C19.1134 31.5504 19.0575 31.5693 18.9458 31.6072C17.5199 32.0906 16.318 32.0835 14.8875 31.5567C14.8067 31.5269 14.7664 31.5121 14.2236 31.233C13.9275 31.0808 13.112 30.5741 12.8445 30.3759C12.354 30.0127 12.1089 29.7802 11.6189 29.3152L3.07632 21.2077C2.56074 20.7184 2.30295 20.4738 1.84606 19.8892C1.61693 19.596 0.958099 18.556 0.790941 18.2236C0.457625 17.5607 0.498943 17.6863 0.482416 17.6361C0.126945 16.5555 0.126672 15.5935 0.478642 14.5071C0.485212 14.4868 0.468789 14.5375 0.814987 13.8506C0.992481 13.4984 1.67104 12.4379 1.91643 12.1291C2.39504 11.527 2.67901 11.2647 3.24695 10.7402L12.1519 2.51563C12.5316 2.16501 12.7214 1.9897 13.0834 1.71193C13.2846 1.55749 13.8721 1.161 14.0906 1.03211C14.4836 0.800296 14.5253 0.780576 14.6087 0.741134C16.3626 -0.0882218 17.7405 -0.0897106 19.5148 0.703954C19.6501 0.764496 19.7178 0.794766 20.1584 1.04836C20.4127 1.19469 21.051 1.62203 21.2832 1.80136C21.6855 2.11213 21.9093 2.3245 22.3568 2.74924L31.1979 11.1399ZM19.0875 6.99782L26.8397 14.3551C28.3183 15.7237 28.3368 16.5223 26.8149 18.0072L18.9636 25.2586C17.3915 26.6623 16.5374 26.6558 15.0627 25.2322L7.31053 17.8749C5.89655 16.4018 5.91048 15.6032 7.33532 14.2227L15.1866 6.97135C16.5346 5.41019 17.3772 5.37726 19.0875 6.99782Z" fill="white"/>
<path fill-rule="evenodd" clip-rule="evenodd" d="M31.0898 27.0632C31.5995 27.547 31.8544 27.7889 32.2564 28.2814C32.4739 28.5479 33.0415 29.3776 33.211 29.677C33.5243 30.2302 33.5374 30.2623 33.5636 30.3264C34.1495 31.7585 34.1226 32.929 33.4341 34.331C33.4329 34.3335 33.4323 34.3347 33.135 34.8015C32.982 35.0418 32.4409 35.7673 32.2543 35.9824C31.8917 36.4005 31.6898 36.587 31.2859 36.9599L22.3217 45.2392C21.7883 45.7318 21.5216 45.9781 21.0096 46.3437C20.7245 46.5473 19.8862 47.0455 19.5711 47.1987C19.0053 47.4738 18.9494 47.4927 18.8377 47.5306C17.4118 48.014 16.2099 48.0069 14.7794 47.48C14.6987 47.4503 14.6583 47.4354 14.1155 47.1564C13.8194 47.0042 13.0039 46.4974 12.7364 46.2993C12.2459 45.9361 12.0009 45.7036 11.5108 45.2385L2.96825 37.1311C2.45267 36.6418 2.19488 36.3971 1.73798 35.8125C1.50885 35.5194 0.850021 34.4793 0.682863 34.1469C0.349547 33.4841 0.390865 33.6097 0.374338 33.5594C0.0188667 32.4788 0.0185945 31.5169 0.370564 30.4304C0.377134 30.4101 0.36071 30.4608 0.706909 29.7739C0.884403 29.4218 1.56297 28.3612 1.80835 28.0525C2.28696 27.4503 2.57093 27.188 3.13887 26.6635L12.0438 18.439C12.4235 18.0884 12.6133 17.9131 12.9753 17.6353C13.1766 17.4808 13.764 17.0844 13.9825 16.9555C14.3755 16.7237 14.4173 16.7039 14.5007 16.6645C16.2545 15.8351 17.6324 15.8336 19.4067 16.6273C19.542 16.6879 19.6097 16.7181 20.0503 16.9717C20.3046 17.118 20.9429 17.5454 21.1751 17.7247C21.5775 18.0355 21.8012 18.2479 22.2488 18.6726L31.0898 27.0632ZM18.9794 22.9212L26.7316 30.2784C28.2102 31.6471 28.2287 32.4456 26.7068 33.9306L18.8555 41.182C17.2834 42.5857 16.4293 42.5792 14.9546 41.1555L7.20245 33.7982C5.78847 32.3251 5.8024 31.5265 7.22724 30.1461L15.0786 22.8947C16.4266 21.3335 17.2691 21.3006 18.9794 22.9212Z" fill="white"/>
<path d="M43.8808 15.2V32H47.5288V15.2H43.8808ZM54.7102 23.624C54.1582 23.624 53.7742 23.216 53.7742 22.664V22.256C53.7742 21.704 54.1582 21.32 54.7102 21.32H63.8542V18.272H53.6062C51.7822 18.272 50.3182 19.76 50.3182 21.56V23.36C50.3182 25.184 51.7822 26.648 53.6062 26.648H60.3022C60.8062 26.648 61.2382 27.032 61.2382 27.584V28.016C61.2382 28.568 60.8062 28.952 60.3022 28.952H50.5582V32H61.4062C63.2062 32 64.6942 30.512 64.6942 28.712V26.912C64.6942 25.112 63.2062 23.624 61.4062 23.624H54.7102ZM80.2743 18.272H74.9463V15.176H71.4663V18.272H66.1623V21.368H71.4663V32H74.9463V21.368H80.2743V18.272ZM82.5879 18.272V21.32H91.8759C92.4279 21.32 92.8119 21.704 92.8119 22.256V23.624H85.0359C83.2359 23.624 81.7479 25.088 81.7479 26.912V28.712C81.7479 30.512 83.2119 32 85.0359 32H96.2919V21.56C96.2919 19.736 94.8279 18.272 93.0039 18.272H82.5879ZM86.1639 28.952C85.6599 28.952 85.2279 28.568 85.2279 28.016V27.584C85.2279 27.032 85.6599 26.648 86.1639 26.648H92.8119V28.952H86.1639ZM107.387 15.2C105.371 15.272 103.739 16.856 103.739 18.848V32H107.387V27.056H115.715V32H119.387V15.2H107.387ZM107.387 19.328C107.387 18.752 107.843 18.272 108.419 18.272H115.715V23.984H107.387V19.328ZM126.57 23.624C126.018 23.624 125.634 23.216 125.634 22.664V22.256C125.634 21.704 126.018 21.32 126.57 21.32H135.714V18.272H125.466C123.642 18.272 122.178 19.76 122.178 21.56V23.36C122.178 25.184 123.642 26.648 125.466 26.648H132.162C132.666 26.648 133.098 27.032 133.098 27.584V28.016C133.098 28.568 132.666 28.952 132.162 28.952H122.418V32H133.266C135.066 32 136.554 30.512 136.554 28.712V26.912C136.554 25.112 135.066 23.624 133.266 23.624H126.57ZM142.929 23.624C142.377 23.624 141.993 23.216 141.993 22.664V22.256C141.993 21.704 142.377 21.32 142.929 21.32H152.073V18.272H141.825C140.001 18.272 138.537 19.76 138.537 21.56V23.36C138.537 25.184 140.001 26.648 141.825 26.648H148.521C149.025 26.648 149.457 27.032 149.457 27.584V28.016C149.457 28.568 149.025 28.952 148.521 28.952H138.777V32H149.625C151.425 32 152.913 30.512 152.913 28.712V26.912C152.913 25.112 151.425 23.624 149.625 23.624H142.929ZM156.205 18.272V21.32H165.493C166.045 21.32 166.429 21.704 166.429 22.256V23.624H158.653C156.853 23.624 155.365 25.088 155.365 26.912V28.712C155.365 30.512 156.829 32 158.653 32H169.909V21.56C169.909 19.736 168.445 18.272 166.621 18.272H156.205ZM159.781 28.952C159.277 28.952 158.845 28.568 158.845 28.016V27.584C158.845 27.032 159.277 26.648 159.781 26.648H166.429V28.952H159.781ZM183.344 18.272L176.264 24.464V13.616H172.784V32H176.264V25.376L183.92 32H188.36L180.176 24.92L187.76 18.272H183.344ZM189.932 18.272V21.32H199.22C199.772 21.32 200.156 21.704 200.156 22.256V23.624H192.38C190.58 23.624 189.092 25.088 189.092 26.912V28.712C189.092 30.512 190.556 32 192.38 32H203.636V21.56C203.636 19.736 202.172 18.272 200.348 18.272H189.932ZM193.508 28.952C193.004 28.952 192.572 28.568 192.572 28.016V27.584C192.572 27.032 193.004 26.648 193.508 26.648H200.156V28.952H193.508Z" fill="white"/>
</svg>
