<svg width="34" height="34" viewBox="0 0 34 34" fill="none" xmlns="http://www.w3.org/2000/svg">
<path opacity="0.4" d="M12.3499 9.00065V24.984C12.3499 30.334 15.6832 33.6673 21.0165 33.6673H25.3332C30.6665 33.6673 33.9999 30.334 33.9999 25.0006V9.00065C34.0165 3.66732 30.6832 0.333984 25.3499 0.333984H21.0165C15.6832 0.333984 12.3499 3.66732 12.3499 9.00065Z" fill="white"/>
<path d="M6.63309 10.5332L1.04976 16.1165C0.566423 16.5999 0.566423 17.3999 1.04976 17.8832L6.63309 23.4665C7.11642 23.9499 7.91642 23.9499 8.39976 23.4665C8.88309 22.9832 8.88309 22.1832 8.39976 21.6999L4.94976 18.2499H22.7664C23.4498 18.2499 24.0164 17.6832 24.0164 16.9999C24.0164 16.3165 23.4498 15.7499 22.7664 15.7499H4.94976L8.39976 12.2999C8.64976 12.0499 8.76642 11.7332 8.76642 11.4165C8.76642 11.0999 8.64976 10.7665 8.39976 10.5332C7.91642 10.0332 7.13309 10.0332 6.63309 10.5332Z" fill="white"/>
</svg>
