<svg width="81" height="80" viewBox="0 0 81 80" fill="none" xmlns="http://www.w3.org/2000/svg">
<path opacity="0.4" d="M55.146 41.9261V53.2241C55.146 56.1345 52.8773 59.2511 50.1502 60.1678L42.8398 62.597C41.5564 63.0324 39.471 63.0324 38.2106 62.597L30.9002 60.1678C28.1502 59.2511 25.9044 56.1345 25.9044 53.2241L25.9273 41.9261L36.0564 48.5261C38.5314 50.1532 42.6106 50.1532 45.0856 48.5261L55.146 41.9261Z" fill="white"/>
<path d="M58.8104 27.303L45.0833 18.2968C42.6083 16.6697 38.5291 16.6697 36.0541 18.2968L22.2583 27.303C17.8354 30.1676 17.8354 36.653 22.2583 39.5405L25.925 41.9239L36.0541 48.5239C38.5291 50.151 42.6083 50.151 45.0833 48.5239L55.1437 41.9239L58.2833 39.8614V46.8739C58.2833 47.8135 59.0625 48.5926 60.002 48.5926C60.9416 48.5926 61.7208 47.8135 61.7208 46.8739V35.5989C62.6375 32.6426 61.6979 29.2051 58.8104 27.303Z" fill="white"/>
</svg>
