<svg width="45" height="46" viewBox="0 0 45 46" fill="none" xmlns="http://www.w3.org/2000/svg">
<path d="M30.8334 45.398H14.1667C4.54169 45.398 2.75003 40.9188 2.29169 36.5646L0.729193 19.8771C0.500026 17.6896 0.437526 14.4604 2.60419 12.0438C4.47919 9.96045 7.58336 8.96045 12.0834 8.96045H32.9167C37.4375 8.96045 40.5417 9.98128 42.3959 12.0438C44.5625 14.4604 44.5 17.6896 44.2709 19.8979L42.7084 36.5438C42.25 40.9188 40.4584 45.398 30.8334 45.398ZM12.0834 12.0646C8.56253 12.0646 6.14586 12.7521 4.91669 14.1271C3.89586 15.2521 3.56253 16.9813 3.83336 19.5646L5.39586 36.2521C5.75003 39.5438 6.64586 42.2729 14.1667 42.2729H30.8334C38.3334 42.2729 39.25 39.5438 39.6042 36.2313L41.1667 19.5854C41.4375 16.9813 41.1042 15.2521 40.0834 14.1271C38.8542 12.7521 36.4375 12.0646 32.9167 12.0646H12.0834Z" fill="#0A033C"/>
<path d="M30.8376 12.0604C29.9834 12.0604 29.2751 11.3521 29.2751 10.4979V8.83122C29.2751 5.12288 29.2751 3.72705 24.1709 3.72705H20.8376C15.7334 3.72705 15.7334 5.12288 15.7334 8.83122V10.4979C15.7334 11.3521 15.0251 12.0604 14.1709 12.0604C13.3167 12.0604 12.6084 11.3521 12.6084 10.4979V8.83122C12.6084 5.16455 12.6084 0.602051 20.8376 0.602051H24.1709C32.4001 0.602051 32.4001 5.16455 32.4001 8.83122V10.4979C32.4001 11.3521 31.6917 12.0604 30.8376 12.0604ZM22.5042 32.8937C16.7751 32.8937 16.7751 29.3521 16.7751 27.2271V25.0812C16.7751 22.1437 17.4834 21.4354 20.4209 21.4354H24.5876C27.5251 21.4354 28.2334 22.1437 28.2334 25.0812V27.1646C28.2334 29.3312 28.2334 32.8937 22.5042 32.8937ZM19.9001 24.5604V27.2271C19.9001 29.3729 19.9001 29.7687 22.5042 29.7687C25.1084 29.7687 25.1084 29.4354 25.1084 27.2062V24.5604H19.9001Z" fill="#0A033C"/>
<path d="M26.6709 28.7646C25.9 28.7646 25.2125 28.1812 25.1292 27.3896C25.025 26.5354 25.6292 25.7437 26.4834 25.6396C31.9834 24.9521 37.2542 22.8687 41.6917 19.6396C42.3792 19.1187 43.3584 19.2854 43.8792 19.9937C44.3792 20.6812 44.2334 21.6604 43.525 22.1812C38.65 25.7229 32.9 27.9937 26.8584 28.7646H26.6709ZM18.3375 28.7896H18.15C12.4417 28.1437 6.87921 26.0604 2.06672 22.7687C1.72599 22.5352 1.49113 22.1767 1.41312 21.771C1.33511 21.3654 1.42025 20.9453 1.65005 20.6021C2.12922 19.8937 3.10838 19.7062 3.81672 20.1854C8.21255 23.1854 13.275 25.0812 18.4834 25.6854C19.3375 25.7896 19.9625 26.5604 19.8584 27.4146C19.7959 28.2062 19.1292 28.7896 18.3375 28.7896Z" fill="#0A033C"/>
</svg>
