<svg width="49" height="38" viewBox="0 0 49 38" fill="none" xmlns="http://www.w3.org/2000/svg">
<path d="M5.74999 14.3124C2.58333 14.3124 0.0208282 11.7499 0.0208282 8.58325C0.0208282 5.41658 2.58333 2.85408 5.74999 2.85408C8.91666 2.85408 11.4792 5.41658 11.4792 8.58325C11.4792 11.7499 8.91666 14.3124 5.74999 14.3124ZM5.74999 5.97908C5.05933 5.97908 4.39695 6.25345 3.90857 6.74182C3.42019 7.2302 3.14583 7.89258 3.14583 8.58325C3.14583 9.27391 3.42019 9.93629 3.90857 10.4247C4.39695 10.913 5.05933 11.1874 5.74999 11.1874C6.44066 11.1874 7.10304 10.913 7.59142 10.4247C8.07979 9.93629 8.35416 9.27391 8.35416 8.58325C8.35416 7.89258 8.07979 7.2302 7.59142 6.74182C7.10304 6.25345 6.44066 5.97908 5.74999 5.97908ZM43.25 14.3124C40.0833 14.3124 37.5208 11.7499 37.5208 8.58325C37.5208 5.41658 40.0833 2.85408 43.25 2.85408C46.4167 2.85408 48.9792 5.41658 48.9792 8.58325C48.9792 11.7499 46.4167 14.3124 43.25 14.3124ZM43.25 5.97908C42.5593 5.97908 41.8969 6.25345 41.4086 6.74182C40.9202 7.2302 40.6458 7.89258 40.6458 8.58325C40.6458 9.27391 40.9202 9.93629 41.4086 10.4247C41.8969 10.913 42.5593 11.1874 43.25 11.1874C43.9407 11.1874 44.603 10.913 45.0914 10.4247C45.5798 9.93629 45.8542 9.27391 45.8542 8.58325C45.8542 7.89258 45.5798 7.2302 45.0914 6.74182C44.603 6.25345 43.9407 5.97908 43.25 5.97908Z" fill="#0A033C"/>
<path d="M39.0833 10.1458H30.75C29.8958 10.1458 29.1875 9.43749 29.1875 8.58333C29.1875 7.72916 29.8958 7.02083 30.75 7.02083H39.0833C39.9375 7.02083 40.6458 7.72916 40.6458 8.58333C40.6458 9.43749 39.9375 10.1458 39.0833 10.1458ZM18.25 10.1458H9.91666C9.06249 10.1458 8.35416 9.43749 8.35416 8.58333C8.35416 7.72916 9.06249 7.02083 9.91666 7.02083H18.25C19.1042 7.02083 19.8125 7.72916 19.8125 8.58333C19.8125 9.43749 19.1042 10.1458 18.25 10.1458ZM12 37.2292H7.83333C5.24999 37.2292 3.14583 35.125 3.14583 32.5417V28.375C3.14583 25.7917 5.24999 23.6875 7.83333 23.6875H12C14.5833 23.6875 16.6875 25.7917 16.6875 28.375V32.5417C16.6875 34.4167 15.5833 36.0833 13.875 36.8125C13.3125 37.0833 12.6667 37.2292 12 37.2292ZM7.83333 26.8125C6.97916 26.8125 6.27083 27.5208 6.27083 28.375V32.5417C6.27083 33.3958 6.97916 34.1042 7.83333 34.1042H12C12.2083 34.1042 12.3958 34.0625 12.6042 33.9583C13.2083 33.7083 13.5625 33.1458 13.5625 32.5417V28.375C13.5625 27.5208 12.8542 26.8125 12 26.8125H7.83333ZM41.1667 37.2292H37C36.3333 37.2292 35.6875 37.0833 35.0625 36.7917C33.4167 36.1042 32.3125 34.4167 32.3125 32.5417V28.375C32.3125 25.7917 34.4167 23.6875 37 23.6875H41.1667C43.75 23.6875 45.8542 25.7917 45.8542 28.375V32.5417C45.8542 35.125 43.75 37.2292 41.1667 37.2292ZM37 26.8125C36.1458 26.8125 35.4375 27.5208 35.4375 28.375V32.5417C35.4375 33.1458 35.7917 33.7083 36.3333 33.9375C36.6042 34.0625 36.7917 34.1042 37 34.1042H41.1667C42.0208 34.1042 42.7292 33.3958 42.7292 32.5417V28.375C42.7292 27.5208 42.0208 26.8125 41.1667 26.8125H37Z" fill="#0A033C"/>
<path d="M27.625 16.3958H21.375C18.7917 16.3958 16.6875 14.2917 16.6875 11.7083V5.45833C16.6875 2.87499 18.7917 0.770828 21.375 0.770828H27.625C30.2083 0.770828 32.3125 2.87499 32.3125 5.45833V11.7083C32.3125 14.2917 30.2083 16.3958 27.625 16.3958ZM21.375 3.89583C20.5208 3.89583 19.8125 4.60416 19.8125 5.45833V11.7083C19.8125 12.5625 20.5208 13.2708 21.375 13.2708H27.625C28.4792 13.2708 29.1875 12.5625 29.1875 11.7083V5.45833C29.1875 4.60416 28.4792 3.89583 27.625 3.89583H21.375Z" fill="#0A033C"/>
<path d="M39.0208 26.8125H38.8333C38.4219 26.7649 38.0462 26.5562 37.7885 26.2321C37.5307 25.9079 37.412 25.4948 37.4583 25.0833C37.5 24.7917 37.5 24.5208 37.5 24.2292C37.5 18.8125 34.5625 13.8125 30.0208 11.5208C29.8375 11.4278 29.6743 11.2996 29.5406 11.1435C29.4068 10.9874 29.3051 10.8065 29.2413 10.6111C29.1774 10.4157 29.1527 10.2097 29.1685 10.0047C29.1843 9.79979 29.2403 9.59996 29.3333 9.41666C29.4263 9.23336 29.5545 9.07017 29.7106 8.93642C29.8667 8.80266 30.0476 8.70096 30.243 8.63712C30.4384 8.57328 30.6444 8.54855 30.8494 8.56434C31.0543 8.58014 31.2542 8.63614 31.4375 8.72916C37.0208 11.5625 40.625 17.6458 40.625 24.2292C40.625 24.6458 40.6041 25.0417 40.5416 25.4583C40.4791 26.2292 39.8125 26.8125 39.0208 26.8125ZM9.97914 26.8104C9.18747 26.8104 8.52081 26.2271 8.43747 25.4354C8.39581 25.0187 8.35414 24.6229 8.35414 24.2062C8.35414 17.6229 11.9583 11.5396 17.5416 8.70624C17.7249 8.61285 17.9247 8.55655 18.1298 8.54057C18.3348 8.52459 18.541 8.54924 18.7365 8.61311C18.932 8.67698 19.1129 8.77882 19.269 8.91278C19.425 9.04674 19.5531 9.21018 19.6458 9.39374C20.0416 10.1646 19.7291 11.1021 18.9583 11.4979C14.4166 13.7896 11.4791 18.7896 11.4791 24.2062C11.4791 24.4979 11.5 24.7687 11.5208 25.0604C11.625 25.9146 11 26.6854 10.1458 26.7896C10.1041 26.8104 10.0416 26.8104 9.97914 26.8104Z" fill="#0A033C"/>
</svg>
