<svg width="81" height="80" viewBox="0 0 81 80" fill="none" xmlns="http://www.w3.org/2000/svg">
<path opacity="0.4" d="M33.6721 17.0845C27.6679 17.0845 22.7867 21.9657 22.7867 27.9699C22.7867 33.8595 27.3929 38.6261 33.3971 38.8324C33.5804 38.8095 33.7637 38.8095 33.9012 38.8324H34.0617C36.8789 38.7384 39.5492 37.5524 41.5079 35.5253C43.4667 33.4982 44.5602 30.7887 44.5575 27.9699C44.5575 21.9657 39.6762 17.0845 33.6721 17.0845Z" fill="white"/>
<path d="M45.3137 44.9259C38.92 40.6634 28.4929 40.6634 22.0533 44.9259C19.1429 46.8738 17.5387 49.5092 17.5387 52.328C17.5387 55.1467 19.1429 57.7592 22.0304 59.6842C25.2387 61.8384 29.4554 62.9155 33.6721 62.9155C37.8887 62.9155 42.1054 61.8384 45.3137 59.6842C48.2012 57.7363 49.8054 55.1238 49.8054 52.2821C49.7825 49.4634 48.2012 46.8509 45.3137 44.9259Z" fill="white"/>
<path opacity="0.4" d="M58.8575 29.3174C59.2241 33.7632 56.0616 37.659 51.6846 38.1861H51.57C51.4325 38.1861 51.295 38.1861 51.1804 38.2319C48.9575 38.3465 46.9179 37.6361 45.3825 36.3299C47.7429 34.2215 49.095 31.059 48.82 27.6215C48.6627 25.834 48.0557 24.1154 47.0554 22.6257C48.2562 22.0415 49.5811 21.7582 50.9158 21.8003C52.2505 21.8424 53.555 22.2085 54.7166 22.8671C55.8782 23.5258 56.8622 24.4571 57.5836 25.5809C58.305 26.7046 58.7422 27.987 58.8575 29.3174Z" fill="white"/>
<path d="M63.4363 50.5199C63.2529 52.7428 61.8321 54.6678 59.4488 55.974C57.1571 57.2345 54.2696 57.8303 51.405 57.7615C53.055 56.272 54.0175 54.4157 54.2009 52.4449C54.43 49.6032 53.0779 46.8761 50.3738 44.699C48.8384 43.4845 47.0509 42.522 45.1029 41.8115C50.1675 40.3449 56.5384 41.3303 60.4571 44.4928C62.5654 46.1886 63.6425 48.3199 63.4363 50.5199Z" fill="white"/>
</svg>
